<svg width="1202" height="212" viewBox="0 0 1202 212" fill="none" xmlns="http://www.w3.org/2000/svg">
<path d="M132.881 172.039C132.881 173.154 132.832 173.99 132.733 174.547C132.237 174.77 131.841 175.104 131.544 175.55C131.247 175.884 130.752 175.996 130.058 175.884C129.86 177.556 129.365 178.95 128.572 180.064C127.78 181.179 126.938 182.182 126.046 183.074C125.254 184.077 124.461 185.08 123.669 186.083C122.876 187.198 122.381 188.591 122.183 190.263C120.697 191.154 119.211 192.325 117.725 193.774C116.338 195.334 115.1 196.393 114.01 196.95C113.218 197.396 112.376 197.73 111.484 197.953C110.593 198.288 109.701 198.678 108.809 199.124C105.937 200.573 102.965 202.077 99.8939 203.638C96.9221 205.198 93.8016 205.978 90.5326 205.978H89.4925C89.0961 206.424 88.6009 206.703 88.0065 206.814C87.4122 207.037 86.8178 207.204 86.2234 207.316C85.6291 207.427 85.0347 207.594 84.4403 207.817C83.846 208.04 83.4002 208.375 83.103 208.82C82.0134 208.375 80.8247 208.152 79.5368 208.152H78.4967C76.8127 208.598 75.2276 208.932 73.7417 209.155C72.2558 209.378 70.6707 209.489 68.9868 209.489C66.0149 209.489 63.0431 209.266 60.0713 208.82C57.0994 208.375 54.1276 207.984 51.1557 207.65C49.2735 205.978 47.7381 203.86 46.5494 201.297C45.3607 198.845 44.7663 196.226 44.7663 193.439C44.7663 191.321 45.1626 189.315 45.955 187.42C46.7474 185.637 47.7876 184.021 49.0755 182.572H49.5212C50.4128 182.572 51.3043 182.349 52.1959 181.903C53.1866 181.457 54.1276 181.234 55.0191 181.234C56.0098 181.234 56.8022 181.68 57.3966 182.572C58.0901 183.464 58.5853 184.523 58.8825 185.749C59.2788 186.975 59.5263 188.201 59.6255 189.427C59.7246 190.764 59.7741 191.823 59.7741 192.603C60.8637 193.16 62.003 193.495 63.1917 193.606C64.4796 193.718 65.7672 193.774 67.0551 193.774C68.343 193.774 69.7792 193.662 71.3642 193.439C72.9493 193.328 74.5341 193.049 76.1192 192.603C77.8031 192.269 79.3882 191.823 80.8741 191.266C82.4592 190.709 83.7965 189.984 84.8861 189.092C90.3346 188.535 95.1389 187.142 99.2995 184.913C103.46 182.684 107.868 180.064 112.524 177.055C112.722 175.829 113.119 174.881 113.713 174.213C114.406 173.432 114.753 172.318 114.753 170.869C114.753 170.646 114.704 170.423 114.604 170.2C114.604 169.866 114.604 169.587 114.604 169.364C112.623 166.578 110.543 164.126 108.364 162.008C106.283 159.89 103.559 158.497 100.191 157.828C99.7947 156.825 99.1509 156.101 98.2594 155.655C97.3678 155.098 96.4268 154.596 95.4361 154.15C94.4454 153.704 93.5044 153.259 92.6129 152.813C91.7213 152.255 91.0775 151.364 90.6812 150.138C88.0065 149.58 85.2327 148.912 82.36 148.131C79.5862 147.24 77.2088 145.679 75.2276 143.45C73.6426 143.339 72.1072 143.004 70.6213 142.447C69.2345 141.778 67.8475 141.165 66.4607 140.608C65.0739 139.939 63.6375 139.382 62.1515 138.936C60.6656 138.379 59.1303 138.1 57.5452 138.1C57.1489 137.32 56.6042 136.707 55.9107 136.261C55.2172 135.815 54.4248 135.425 53.5332 135.091C52.7408 134.756 51.9482 134.422 51.1557 134.088C50.4622 133.642 49.9176 133.029 49.5212 132.249C49.1249 132.36 48.8277 132.583 48.6297 132.917C48.4316 133.252 48.0848 133.419 47.5895 133.419H46.9952C46.7971 132.75 46.4008 132.304 45.8064 132.081C45.2121 131.747 44.8654 131.134 44.7663 130.242C42.9832 130.131 41.3487 129.741 39.8628 129.072C38.476 128.403 37.1387 127.679 35.8508 126.899C34.662 126.007 33.4239 125.171 32.136 124.391C30.8481 123.61 29.4119 122.998 27.8268 122.552C26.8361 121.66 25.8951 120.713 25.0036 119.71C24.2112 118.595 23.171 118.038 21.8831 118.038C21.586 118.038 21.0411 118.149 20.2486 118.372C20.0505 116.366 19.3076 114.973 18.0197 114.192C16.7319 113.301 15.3451 112.52 13.8592 111.852C12.8686 108.954 11.5312 106.39 9.84719 104.161C8.16316 101.932 6.33051 99.8698 4.34929 97.9751C4.54741 97.3064 4.64648 96.8048 4.64648 96.4704C4.64648 95.3558 4.39882 94.4086 3.90352 93.6283C3.40822 92.7367 2.86338 92.012 2.26901 91.4548C0.88215 86.4392 0.188721 81.5351 0.188721 76.7423C0.188721 70.0548 1.52605 63.8689 4.2007 58.1845C6.77629 52.3886 10.8873 48.0417 16.5338 45.1439C16.6329 44.2523 16.8805 43.472 17.2768 42.8033C17.7721 42.1345 18.0693 41.3542 18.1683 40.4626C19.0599 40.4626 19.7533 40.2398 20.2486 39.7939C20.7439 39.348 21.1897 38.9023 21.586 38.4564C22.0813 37.8992 22.5766 37.3976 23.0719 36.9517C23.5671 36.5058 24.2112 36.2273 25.0036 36.1158C28.7678 32.4376 32.7798 29.4839 37.0395 27.2548C41.2992 24.9142 45.6578 22.5178 50.1156 20.0658C51.0072 19.6199 51.7501 18.784 52.3445 17.5579H53.236C54.2267 17.5579 54.9697 17.335 55.4649 16.8892C56.0593 16.3319 56.9014 16.1647 57.991 16.3876C58.3873 15.7189 58.8825 15.273 59.4769 15.0501C60.1704 14.8272 60.8142 14.66 61.4086 14.5486C62.1021 14.3257 62.7459 14.047 63.3403 13.7126C63.9346 13.3783 64.331 12.8767 64.529 12.2079H65.5692C67.2531 12.2079 68.8876 11.9293 70.4727 11.372C72.0578 10.7033 73.6426 9.97878 75.2276 9.19857H76.2678C78.2489 9.19857 80.0817 8.80847 81.7657 8.02826C83.5488 7.1366 85.431 6.52357 87.4122 6.18919C88.2046 5.96629 88.9972 5.91054 89.7896 6.02201C90.5821 6.13347 91.3747 6.18919 92.1671 6.18919C92.6623 6.18919 93.2567 6.13347 93.9502 6.02201C94.6437 5.91054 95.1389 5.57616 95.4361 5.01888H95.7333C96.3277 5.01888 96.6743 5.24179 96.7735 5.68763C96.8726 6.13347 97.1698 6.35638 97.665 6.35638C98.3585 6.35638 99.0518 6.24491 99.7453 6.02201C100.439 5.7991 101.132 5.68763 101.826 5.68763C104.797 5.68763 107.72 6.02201 110.593 6.69076C113.564 7.35951 116.487 7.97254 119.359 8.52982C119.557 9.86732 120.053 10.8147 120.845 11.372C121.737 11.9293 122.678 12.4309 123.669 12.8767V13.5454C123.669 14.4371 123.867 15.1616 124.263 15.7189C123.867 17.2793 123.173 18.4496 122.183 19.2298C121.192 20.01 120.102 20.6788 118.914 21.2361C119.409 21.6819 119.706 22.2949 119.805 23.0751C119.904 23.8553 119.954 24.5798 119.954 25.2486V27.2548L119.211 27.0876C117.626 27.0876 116.833 27.9236 116.833 29.5954C115.545 28.7039 114.109 28.1464 112.524 27.9236C111.038 27.7007 109.552 27.5892 108.066 27.5892C106.085 27.5892 104.005 27.7007 101.826 27.9236C99.6462 28.0351 97.5164 27.9792 95.4361 27.7564C94.6437 28.8711 93.653 29.707 92.4643 30.2642C91.2756 30.7101 90.0868 30.9329 88.8981 30.9329C87.6102 30.9329 86.372 30.6542 85.1833 30.097C83.9946 29.4283 83.1525 28.4808 82.6572 27.2548C82.162 27.032 81.7162 26.9204 81.3199 26.9204H79.9826C78.3975 26.9204 76.8127 27.1433 75.2276 27.5892C73.7417 27.9236 72.2063 28.3695 70.6213 28.9267C69.0362 29.3726 67.4514 29.8742 65.8663 30.4314C64.3804 30.8773 62.8451 31.1558 61.26 31.2673C60.6656 32.1589 59.8732 32.772 58.8825 33.1064C57.8918 33.4408 57.0994 34.0539 56.5051 34.9454C54.4248 35.3914 52.5425 36.1714 50.8586 37.2861C49.1746 38.2892 47.5401 39.4039 45.955 40.6298L41.3487 44.1408C39.8628 45.2554 38.1788 46.2026 36.2966 46.9829C34.9098 48.6548 33.6219 49.9923 32.4332 50.9954C31.2444 51.9986 29.7091 52.8901 27.8268 53.6704C26.6381 54.1164 25.9446 54.7851 25.7465 55.6767C25.6474 56.5683 25.2513 57.4601 24.5578 58.3517C23.9634 59.132 23.2205 59.7448 22.3289 60.1908C21.5364 60.5251 20.843 61.1382 20.2486 62.0298C19.7533 62.8101 19.3571 63.7573 19.0599 64.872C18.8618 65.8751 18.6141 66.8783 18.3169 67.8814C18.0197 68.8845 17.673 69.8876 17.2768 70.8908C16.8805 71.7823 16.2862 72.5626 15.4937 73.2314C15.4937 73.6773 15.4442 74.123 15.3451 74.5689C15.3451 75.0148 15.3451 75.4048 15.3451 75.7392C15.3451 77.2995 15.4937 78.9158 15.7909 80.5876C16.1871 82.148 16.4348 83.7085 16.5338 85.2689C18.515 89.1698 20.843 92.7367 23.5176 95.9689C26.1923 99.0898 29.065 101.988 32.136 104.663C35.207 107.338 38.3768 109.845 41.6459 112.186C45.014 114.527 48.3325 116.812 51.6015 119.041C52.7903 118.929 53.8799 119.096 54.8705 119.542C55.8612 119.877 56.9014 120.1 57.991 120.211C59.1797 121.214 60.5665 121.994 62.1515 122.552L66.9065 124.224C68.4915 124.781 70.0269 125.45 71.5128 126.23C72.9988 126.899 74.2369 127.846 75.2276 129.072C75.7229 129.184 76.1686 129.351 76.565 129.574C76.9613 129.685 77.4071 129.741 77.9023 129.741C78.4967 129.741 78.8433 129.518 78.9424 129.072C83.4002 130.967 87.7588 133.085 92.0185 135.425C96.2782 137.654 100.785 139.382 105.54 140.608C107.423 142.391 109.503 143.952 111.781 145.289C114.06 146.627 116.338 148.02 118.616 149.469C120.895 150.806 123.074 152.311 125.155 153.983C127.235 155.543 129.067 157.438 130.652 159.667C130.85 161.785 131.247 163.847 131.841 165.853C132.535 167.748 132.881 169.81 132.881 172.039ZM283.849 157.16C283.355 158.943 283.208 160.726 283.405 162.51C283.108 162.955 282.761 163.234 282.366 163.345C281.969 163.457 281.572 163.624 281.177 163.847C280.78 163.959 280.433 164.181 280.136 164.516C279.939 164.739 279.939 165.24 280.136 166.02C276.867 166.243 273.745 167.024 270.773 168.361C267.802 169.699 264.88 171.148 262.008 172.708C260.522 172.151 259.233 171.482 258.144 170.702C257.055 169.921 255.667 169.42 253.984 169.197C252.3 165.407 250.715 161.451 249.229 157.327C247.843 153.091 247.148 148.856 247.148 144.62C247.148 141.5 247.643 138.657 248.634 136.094C248.634 132.75 248.882 129.462 249.376 126.23C249.873 122.998 250.417 119.821 251.012 116.7C251.706 113.468 252.3 110.235 252.795 107.003C253.289 103.771 253.537 100.483 253.537 97.1392V93.4611C253.339 93.4611 253.092 93.7398 252.795 94.297C252.498 94.7429 252.201 95.3001 251.903 95.9689C251.706 96.5261 251.506 97.0836 251.309 97.6408C251.112 98.198 250.962 98.5323 250.864 98.6439C249.179 100.093 247.843 101.932 246.851 104.161C245.96 106.279 244.968 108.285 243.879 110.18C242.493 112.52 241.007 114.805 239.422 117.035C237.936 119.264 236.054 120.991 233.775 122.217V122.552C233.775 123.109 233.627 123.499 233.329 123.722C233.032 123.945 232.983 124.502 233.181 125.394C230.704 126.285 228.376 127.567 226.197 129.239C224.117 130.911 222.383 133.029 220.996 135.592C219.015 136.15 217.133 136.93 215.35 137.933C213.666 138.825 211.932 139.828 210.149 140.942C209.357 141.388 208.515 141.945 207.623 142.614C206.731 143.283 205.84 143.729 204.948 143.952C204.156 144.286 203.066 144.509 201.679 144.62C200.391 144.732 199.005 144.843 197.519 144.955C196.132 145.066 194.745 145.122 193.358 145.122H190.089C189.594 145.122 188.95 144.843 188.157 144.286C187.365 143.729 186.474 143.116 185.483 142.447C184.591 141.778 183.65 141.165 182.66 140.608C181.669 139.939 180.728 139.493 179.836 139.27C179.044 136.373 177.905 133.809 176.419 131.58C175.032 129.239 173.546 126.899 171.961 124.558C171.466 121.883 170.772 119.096 169.881 116.199C169.088 113.301 167.652 110.904 165.572 109.01C166.067 108.229 166.314 107.338 166.314 106.335C166.314 105.109 166.067 103.938 165.572 102.824C165.076 101.709 164.829 100.483 164.829 99.1454C164.829 98.2539 164.878 97.5851 164.977 97.1392C163.888 98.4767 163.095 100.204 162.6 102.322C162.203 104.328 162.005 106.167 162.005 107.839C162.005 109.177 162.154 110.403 162.451 111.517C161.46 113.078 160.817 115.028 160.519 117.369C160.321 119.71 160.222 121.771 160.222 123.555C160.222 125.784 160.371 127.957 160.668 130.075C159.083 131.859 158.291 134.032 158.291 136.595C158.291 138.044 158.588 139.326 159.182 140.441C159.182 140.887 159.083 141.221 158.885 141.444C158.687 141.667 158.439 141.834 158.142 141.945C157.944 142.057 157.696 142.224 157.399 142.447C157.201 142.559 157.102 142.837 157.102 143.283C157.102 143.84 157.102 144.453 157.102 145.122C157.201 145.791 157.25 146.46 157.25 147.128C157.25 148.689 157.201 150.305 157.102 151.977C157.003 153.649 156.953 155.265 156.953 156.825C156.953 160.057 157.201 162.398 157.696 163.847C158.291 165.185 158.984 166.188 159.776 166.856C160.668 167.525 161.609 168.194 162.6 168.863C163.59 169.531 164.581 170.813 165.572 172.708C165.274 173.711 164.729 174.547 163.937 175.216C163.243 175.773 162.55 176.386 161.857 177.055C161.262 177.612 160.717 178.281 160.222 179.061C159.727 179.841 159.529 180.956 159.628 182.405H158.885C157.597 182.405 156.359 182.628 155.17 183.074C153.981 183.519 152.743 183.742 151.455 183.742C151.158 183.742 150.861 183.687 150.564 183.575C150.267 183.575 149.969 183.575 149.672 183.575L148.186 182.572C147.691 182.238 147.196 182.07 146.7 182.07C146.205 182.07 145.561 182.182 144.769 182.405C143.382 177.389 142.292 172.206 141.5 166.856C140.806 161.506 140.459 156.268 140.459 151.141C140.459 150.584 140.559 150.026 140.757 149.469C141.054 148.8 141.45 148.577 141.945 148.8V145.624C141.945 142.168 142.193 138.825 142.688 135.592C143.283 132.249 143.58 128.793 143.58 125.227C143.58 124.224 143.53 123.22 143.431 122.217C143.431 121.214 143.382 120.267 143.283 119.375C143.778 117.48 144.273 115.585 144.769 113.691C145.363 111.685 145.66 109.623 145.66 107.505C145.66 106.613 145.512 105.554 145.214 104.328C146.007 103.66 146.601 102.824 146.998 101.82C147.394 100.706 147.691 99.5355 147.889 98.3095C148.087 96.972 148.236 95.6901 148.335 94.4642C148.434 93.2382 148.533 92.1236 148.632 91.1204C149.623 88.8914 150.167 86.4948 150.267 83.9314C150.366 81.3679 150.861 78.9714 151.752 76.7423C151.653 76.2964 151.604 75.5164 151.604 74.4017C151.604 72.1726 151.901 69.9433 152.495 67.7142C153.189 65.3736 154.526 63.5901 156.507 62.3642C158.291 63.1445 160.371 63.5345 162.748 63.5345C165.027 63.5345 167.206 63.1445 169.286 62.3642C169.881 62.587 170.426 62.8658 170.921 63.2001C171.416 63.423 171.912 63.7017 172.407 64.0361C173.001 64.2589 173.595 64.482 174.19 64.7048C174.784 64.8164 175.478 64.8164 176.27 64.7048C177.261 67.937 178.103 71.2251 178.796 74.5689C179.589 77.9126 180.183 81.312 180.579 84.7673C180.777 86.2164 180.827 87.7767 180.728 89.4486C180.728 91.1204 180.827 92.6808 181.025 94.1298C181.124 95.0214 181.372 95.8573 181.768 96.6376C182.164 97.3064 182.56 98.0867 182.957 98.9783C183.353 99.8698 183.65 100.873 183.848 101.988C184.146 103.102 184.245 104.495 184.146 106.167C185.235 109.065 186.424 111.852 187.712 114.527C189.098 117.09 190.584 119.654 192.169 122.217C193.061 122.552 193.853 122.998 194.547 123.555C195.24 124.001 195.686 124.781 195.884 125.895C196.776 125.895 197.568 126.063 198.262 126.397L200.788 127.233C204.552 125.895 208.019 124.112 211.189 121.883C214.458 119.654 217.876 117.759 221.442 116.199C225.801 111.406 229.565 106.112 232.735 100.316C235.905 94.4086 239.075 88.557 242.244 82.7611V79.0829C242.838 78.7486 243.335 78.3585 243.732 77.9126C244.227 77.3554 244.821 76.9651 245.515 76.7423C245.613 75.4048 245.86 74.123 246.257 72.897C246.751 71.5595 247.248 70.3335 247.743 69.2189C248.337 67.9929 248.832 66.8226 249.229 65.7079C249.626 64.482 249.823 63.2001 249.823 61.8626C249.823 61.0823 249.773 60.4136 249.676 59.8564C251.159 58.1845 252.942 57.3486 255.025 57.3486C257.005 57.3486 258.986 57.9058 260.969 59.0204C263.047 60.0236 264.979 60.971 266.763 61.8626C267.851 64.5376 268.646 67.3798 269.14 70.3892C269.734 73.287 270.131 76.2964 270.329 79.4173C270.526 82.5382 270.626 85.6589 270.626 88.7798V100.65C270.526 101.542 270.229 102.21 269.734 102.656C269.337 102.991 269.04 103.548 268.843 104.328V106C268.843 106.557 268.793 107.115 268.695 107.672C268.695 110.013 268.446 112.465 267.951 115.028C267.457 118.26 266.813 121.549 266.018 124.892C265.327 128.125 264.979 131.413 264.979 134.756C264.979 135.982 265.029 137.209 265.129 138.435C265.227 139.66 265.424 140.887 265.724 142.113C265.227 143.116 264.979 144.398 264.979 145.958C264.979 147.741 265.227 149.413 265.724 150.974C266.318 152.423 267.01 153.871 267.802 155.32C269.19 155.32 270.576 155.265 271.962 155.153C273.351 155.042 274.787 154.986 276.272 154.986C277.659 154.986 278.947 155.153 280.136 155.488C281.325 155.71 282.563 156.268 283.849 157.16ZM382.814 81.4236C382.22 82.4267 381.873 83.5414 381.773 84.7673C381.673 85.9933 381.625 87.1079 381.625 88.1111C381.625 89.4486 381.625 90.7861 381.625 92.1236C381.723 93.3495 381.773 94.5757 381.773 95.8017V98.3095C381.575 99.0898 381.278 99.8698 380.881 100.65C380.484 101.43 380.187 102.21 379.99 102.991C378.604 107.115 377.909 111.239 377.909 115.363V115.697C377.415 117.035 376.918 118.26 376.423 119.375C376.026 120.49 375.632 121.604 375.235 122.719C374.838 123.722 374.54 124.837 374.343 126.063C374.146 127.177 374.096 128.515 374.193 130.075C372.807 133.976 370.974 137.543 368.697 140.775C366.419 143.896 364.189 147.128 362.011 150.472C359.929 151.364 357.998 152.534 356.215 153.983C354.532 155.432 352.896 157.048 351.313 158.831C348.241 159.946 345.219 161.228 342.247 162.677C339.275 164.126 336.601 166.076 334.223 168.528C332.34 168.751 330.46 169.085 328.577 169.531C326.694 169.977 324.861 170.646 323.078 171.538H321.295C320.405 171.538 319.761 171.315 319.364 170.869C318.076 171.649 316.739 172.206 315.351 172.541C313.965 172.764 312.579 172.875 311.19 172.875C309.407 172.875 307.624 172.764 305.841 172.541C304.158 172.206 302.425 171.872 300.642 171.538C299.65 169.977 298.264 168.807 296.481 168.027C294.698 167.135 293.112 166.299 291.726 165.519C288.854 161.06 286.774 156.769 285.485 152.645C284.197 148.41 282.86 143.673 281.472 138.435C281.672 136.874 282.019 135.369 282.513 133.92C283.008 132.36 283.208 130.688 283.108 128.905C284.891 123.109 287.218 117.87 290.093 113.189C293.065 108.396 296.431 103.827 300.197 99.4798C300.197 98.8111 300.294 98.2539 300.492 97.8079C300.791 97.362 300.839 96.6933 300.642 95.8017C300.741 95.9132 300.939 95.9689 301.236 95.9689C302.028 95.9689 302.525 95.7461 302.722 95.3001C302.919 94.7429 302.969 94.1298 302.869 93.4611C306.435 90.8976 309.657 87.9439 312.529 84.6001C315.501 81.2564 318.87 78.4698 322.633 76.2408C322.93 75.2376 323.425 74.4017 324.119 73.7329C324.813 73.0642 325.358 72.2839 325.755 71.3923C328.924 70.3892 331.796 68.8845 334.371 66.8783C336.948 64.872 339.672 63.0886 342.544 61.5283C344.13 60.5251 345.616 59.8564 347.002 59.522C348.488 59.0761 350.074 58.6304 351.757 58.1845C352.352 57.9617 352.896 57.7945 353.39 57.6829C353.887 57.5714 354.432 57.5158 355.026 57.5158C356.809 57.5158 358.542 57.9058 360.228 58.6861C361.911 59.3548 363.645 59.6892 365.428 59.6892C365.922 59.6892 366.319 59.6892 366.616 59.6892C367.013 59.5776 367.408 59.4664 367.805 59.3548C369.488 61.6954 371.619 63.4789 374.193 64.7048C374.788 66.3767 375.482 67.8257 376.276 69.0517C377.165 70.2776 378.059 71.5039 378.948 72.7298C379.842 73.8445 380.634 75.1261 381.326 76.5751C382.12 77.9126 382.614 79.5289 382.814 81.4236ZM367.955 90.1173C367.955 89.5601 367.905 89.0586 367.805 88.6126C366.814 88.2783 365.872 87.8323 364.983 87.2751C364.089 86.7179 363.1 86.4392 362.011 86.4392C361.317 86.4392 360.623 86.6064 359.929 86.9408C359.831 86.1605 359.534 85.6033 359.039 85.2689C358.642 84.9345 358.145 84.6558 357.551 84.4329C357.057 84.0986 356.512 83.8757 355.918 83.7642C355.423 83.5414 354.976 83.207 354.579 82.7611C354.284 81.8695 353.937 80.9776 353.54 80.0861C353.243 79.0829 352.649 78.3585 351.757 77.9126C350.866 78.9158 349.824 79.7517 348.636 80.4204C347.447 80.9776 346.211 81.5351 344.922 82.0923C343.733 82.6495 342.544 83.3183 341.356 84.0986C340.267 84.8789 339.325 85.8261 338.531 86.9408H335.859C335.265 88.1667 334.421 89.1142 333.332 89.7829C332.243 90.3401 331.301 91.1761 330.51 92.2908C328.924 93.1823 327.438 94.297 326.05 95.6345C324.763 96.8605 323.475 98.198 322.189 99.647C320.9 100.985 319.611 102.378 318.323 103.827C317.134 105.276 315.848 106.613 314.462 107.839C313.173 110.96 311.737 113.691 310.151 116.031C308.666 118.26 307.23 120.545 305.841 122.886C304.555 125.227 303.416 127.79 302.425 130.577C301.533 133.252 301.086 136.595 301.086 140.608V142.28C301.086 142.837 301.136 143.394 301.236 143.952C302.525 145.512 303.563 147.184 304.358 148.967C305.247 150.751 306.685 152.032 308.666 152.813C310.646 153.704 312.726 154.094 314.906 153.983C317.184 153.871 319.364 154.15 321.444 154.819C326.199 153.816 330.757 152.2 335.115 149.97C339.573 147.63 343.783 144.843 347.746 141.611C348.341 141.054 349.033 140.496 349.824 139.939C350.618 139.27 351.263 138.602 351.757 137.933C352.252 137.376 352.649 136.763 352.946 136.094C353.343 135.425 353.738 134.812 354.135 134.255C354.926 132.806 355.818 131.357 356.809 129.908C357.801 128.459 358.84 127.121 359.929 125.895C360.425 123.443 361.07 121.103 361.861 118.874C362.653 116.533 363.447 114.248 364.239 112.019C365.031 109.79 365.675 107.505 366.172 105.164C366.766 102.824 367.061 100.371 367.061 97.8079C367.061 97.2507 367.013 96.6376 366.914 95.9689C366.914 95.3001 366.864 94.687 366.766 94.1298C367.558 92.9039 367.955 91.5664 367.955 90.1173ZM510.603 169.699C510.603 170.59 510.256 171.315 509.562 171.872C508.868 172.429 508.076 172.987 507.184 173.544L504.51 175.049C503.618 175.494 503.024 176.107 502.727 176.888C501.638 176.553 500.546 176.33 499.458 176.219C498.466 176.107 497.477 176.052 496.486 176.052C495.197 176.052 493.861 176.219 492.473 176.553C491.086 176.776 489.998 177.501 489.206 178.727C488.709 178.504 488.264 178.392 487.867 178.392H486.679C485.193 178.392 483.657 178.504 482.073 178.727C480.585 179.061 479.102 179.228 477.613 179.228C476.822 179.228 476.03 179.173 475.236 179.061C474.544 178.95 473.9 178.615 473.305 178.058C472.414 178.392 471.472 178.559 470.481 178.559C469.195 178.559 467.956 178.337 466.767 177.891C465.579 177.445 464.39 176.943 463.201 176.386C462.112 175.717 460.971 175.104 459.782 174.547C458.594 173.99 457.405 173.544 456.216 173.209L455.177 170.869C453.591 170.535 452.105 170.033 450.719 169.364C449.431 168.584 448.145 167.748 446.856 166.856C445.567 165.965 444.281 165.129 442.993 164.349C441.804 163.457 440.565 162.844 439.279 162.51C438.782 162.064 438.338 161.674 437.94 161.339C437.543 160.893 437.246 160.28 437.049 159.5C435.76 159.166 434.572 158.72 433.483 158.163L430.363 156.324C429.372 155.655 428.233 155.098 426.945 154.652C425.756 154.094 424.32 153.76 422.637 153.649C422.042 152.645 421.198 151.698 420.109 150.806C419.021 149.915 417.929 149.469 416.84 149.469C416.146 149.469 415.602 149.636 415.205 149.97V150.806C415.205 152.144 415.552 153.481 416.246 154.819C416.94 156.156 417.832 157.104 418.921 157.661C418.821 157.884 418.771 158.218 418.771 158.664C418.771 159.333 418.871 160.002 419.071 160.67C419.365 161.339 419.862 161.785 420.554 162.008C420.159 163.234 419.665 164.516 419.071 165.853C418.476 167.079 417.732 168.25 416.84 169.364C415.949 170.479 414.957 171.426 413.869 172.206C412.877 172.875 411.738 173.209 410.45 173.209C410.055 173.432 409.758 173.767 409.561 174.213C409.461 174.659 409.361 175.16 409.261 175.717C409.261 176.163 409.164 176.609 408.966 177.055C408.866 177.501 408.667 177.835 408.372 178.058C407.975 178.169 407.43 178.225 406.736 178.225C405.745 178.225 404.903 178.058 404.211 177.724C403.517 177.389 402.773 176.943 401.981 176.386V175.717C401.981 174.38 401.734 173.321 401.239 172.541C400.842 171.76 400.346 171.036 399.751 170.367C399.257 169.587 398.762 168.807 398.268 168.027C397.871 167.246 397.673 166.188 397.673 164.85C397.374 165.073 397.029 165.24 396.632 165.352C396.335 165.463 396.137 165.686 396.038 166.02C395.84 164.906 395.74 163.959 395.74 163.178C395.74 160.949 396.038 158.831 396.632 156.825C397.326 154.819 397.673 152.701 397.673 150.472V147.964C397.673 145.401 397.623 142.893 397.523 140.441C397.424 137.989 397.374 135.537 397.374 133.085C397.374 130.967 397.424 128.905 397.523 126.899C397.623 124.781 397.821 122.663 398.118 120.545C399.207 113.189 400.098 105.889 400.792 98.6439C401.584 91.2876 402.823 83.987 404.506 76.7423C404.409 76.1851 404.259 75.6276 404.062 75.0704C403.962 74.5132 403.912 73.9558 403.912 73.3986C403.912 72.9526 403.962 72.6742 404.062 72.5626C404.459 70.3335 405.35 68.4945 406.736 67.0454C408.122 65.4851 409.905 64.7048 412.085 64.7048H412.532C413.721 65.262 414.61 66.098 415.205 67.2126C415.899 68.2158 416.94 68.6058 418.326 68.3829C418.326 68.6058 418.276 68.8289 418.177 69.0517C418.177 69.2745 418.177 69.4976 418.177 69.7204C418.177 70.9464 418.476 71.8382 419.071 72.3954C419.665 72.9526 420.357 73.5658 421.148 74.2345C420.654 75.3492 420.307 76.6308 420.109 78.0798C420.01 79.5289 419.912 80.9776 419.812 82.4267C419.712 83.8757 419.515 85.2689 419.218 86.6064C419.021 87.9439 418.574 89.0586 417.882 89.9501C418.276 91.0648 418.524 92.1792 418.624 93.2939C418.723 94.4086 418.771 95.5789 418.771 96.8048C418.771 98.0308 418.723 99.3126 418.624 100.65C418.524 101.876 418.476 103.158 418.476 104.495C418.476 105.721 418.624 106.836 418.921 107.839C421.101 107.839 422.337 106.669 422.637 104.328C425.212 103.548 427.489 102.489 429.47 101.152C431.552 99.7026 433.533 98.198 435.413 96.6376C437.296 95.0773 439.129 93.4611 440.912 91.7892C442.795 90.1173 444.876 88.6683 447.153 87.4423V87.1079C447.153 86.5507 447.301 86.2164 447.6 86.1048C447.895 85.882 447.945 85.3804 447.748 84.6001C449.233 84.0429 450.472 83.3183 451.461 82.4267C452.552 81.4236 453.544 80.3648 454.433 79.2501L457.257 75.7392C458.249 74.5132 459.338 73.4542 460.526 72.5626C461.318 70.6679 462.012 68.6617 462.607 66.5439C463.301 64.4261 464.193 62.4757 465.281 60.6923C467.164 60.6923 469.195 60.8595 471.375 61.1939C473.652 61.5283 475.583 62.3085 477.169 63.5345C476.971 64.4261 477.319 65.0392 478.208 65.3736C477.119 70.0548 475.485 74.2901 473.305 78.0798C471.125 81.7579 468.303 84.8789 464.837 87.4423C464.34 88.6683 463.696 89.7273 462.904 90.6189C462.112 91.5105 461.318 92.4023 460.526 93.2939C459.735 94.0742 458.941 94.9101 458.149 95.8017C457.357 96.6933 456.713 97.7523 456.216 98.9783C455.027 99.2011 453.988 99.5914 453.097 100.149C452.305 100.706 451.511 101.375 450.719 102.155C450.025 102.824 449.233 103.492 448.342 104.161C447.55 104.718 446.659 105.164 445.667 105.499C444.876 106.613 443.934 107.56 442.845 108.341C441.854 109.121 440.812 109.901 439.724 110.681C438.732 111.35 437.791 112.13 436.902 113.022C436.008 113.802 435.366 114.861 434.969 116.199H431.105C430.016 118.316 428.58 120.1 426.797 121.549C425.112 122.886 423.378 124.168 421.595 125.394C421.893 126.731 422.437 127.846 423.231 128.738C424.023 129.518 424.864 130.242 425.756 130.911C426.747 131.58 427.686 132.304 428.58 133.085C429.569 133.753 430.411 134.589 431.105 135.592C435.266 137.376 439.279 139.438 443.14 141.778C447.006 144.007 450.669 146.738 454.138 149.97C454.336 149.859 454.583 149.803 454.88 149.803C455.672 149.803 456.316 150.082 456.81 150.639C457.307 151.085 457.999 151.252 458.893 151.141C459.288 152.255 459.832 153.035 460.526 153.481C461.221 153.816 461.913 154.094 462.607 154.317C463.398 154.54 464.143 154.875 464.837 155.32C465.529 155.766 466.026 156.546 466.32 157.661C467.809 157.773 469.145 158.107 470.334 158.664C471.622 159.221 472.761 160.113 473.752 161.339H475.535C478.705 161.339 481.774 161.674 484.746 162.342C487.718 163.011 490.739 163.345 493.811 163.345C495.397 163.345 496.933 163.234 498.416 163.011C499.904 162.677 501.34 162.119 502.727 161.339C503.221 161.674 503.765 162.008 504.36 162.342C504.954 162.677 505.599 162.844 506.293 162.844C506.787 162.844 507.531 162.732 508.52 162.51C508.62 163.735 508.967 164.906 509.562 166.02C510.256 167.135 510.603 168.361 510.603 169.699ZM582.222 71.8939V72.5626C581.53 72.7855 581.183 73.3429 581.183 74.2345C580.094 74.7917 578.955 75.2376 577.767 75.572C576.578 75.7948 575.437 76.1851 574.348 76.7423C573.259 76.6308 572.118 76.5751 570.929 76.5751C569.84 76.4636 568.751 76.4079 567.662 76.4079C564.691 76.4079 561.719 76.5195 558.747 76.7423C555.775 76.9651 552.803 76.9651 549.831 76.7423C548.443 77.6339 546.907 78.3585 545.224 78.9158C543.638 79.3617 542.105 79.5845 540.616 79.5845C539.428 79.5845 538.389 79.4173 537.497 79.0829C535.12 80.4204 532.495 81.5351 529.623 82.4267C526.848 83.3183 524.024 84.2101 521.152 85.1017C518.28 85.882 515.505 86.8292 512.831 87.9439C510.256 88.947 507.976 90.3961 505.996 92.2908C505.798 93.8511 505.648 95.4117 505.549 96.972C505.451 98.4211 505.401 99.8698 505.401 101.319C505.401 102.879 505.451 104.328 505.549 105.666C505.748 107.003 506.095 108.341 506.59 109.678C507.084 109.901 507.631 110.068 508.226 110.18C508.917 110.291 509.512 110.347 510.009 110.347C510.503 110.347 510.998 110.291 511.492 110.18C511.989 109.957 512.336 109.567 512.534 109.01C514.02 108.787 515.505 108.731 516.991 108.842C518.477 108.842 519.963 108.842 521.449 108.842C522.935 108.842 524.371 108.787 525.757 108.675C527.245 108.564 528.681 108.285 530.067 107.839C531.653 107.393 533.189 107.115 534.673 107.003C536.258 106.892 537.794 106.78 539.28 106.669C540.766 106.557 542.302 106.39 543.888 106.167C545.471 105.833 547.107 105.22 548.79 104.328C550.079 104.885 551.365 105.164 552.653 105.164C554.039 105.164 555.378 105.276 556.664 105.499C557.358 106.056 557.903 106.669 558.3 107.338C558.794 108.006 559.042 108.787 559.042 109.678C559.042 111.239 558.547 112.799 557.558 114.36C556.567 115.92 555.775 117.369 555.181 118.706H553.545C551.168 118.706 548.84 119.096 546.56 119.877C544.382 120.545 542.152 121.381 539.875 122.385C537.694 123.276 535.467 124.112 533.189 124.892C531.009 125.561 528.729 125.895 526.351 125.895C525.957 125.895 525.71 126.174 525.61 126.731C525.61 127.177 525.51 127.512 525.313 127.735C524.818 127.623 524.074 127.567 523.085 127.567C520.805 127.567 518.625 127.846 516.547 128.403C514.464 128.96 512.336 129.239 510.156 129.239C509.562 129.239 508.967 129.239 508.373 129.239C507.779 129.128 507.184 129.016 506.59 128.905C506.095 129.796 505.451 130.41 504.659 130.744C503.865 130.967 503.124 131.413 502.429 132.081C502.132 133.085 501.935 134.31 501.835 135.76C501.835 137.209 501.785 138.713 501.688 140.274C501.688 141.723 501.588 143.116 501.388 144.453C501.191 145.791 500.794 146.85 500.199 147.63C500.299 148.187 500.696 148.41 501.388 148.299C502.082 148.076 502.429 148.41 502.429 149.302C502.429 150.305 502.33 151.364 502.132 152.478C501.935 153.593 501.835 154.707 501.835 155.822C501.835 157.94 502.032 160.28 502.429 162.844C502.924 165.296 503.618 167.581 504.51 169.699C505.501 171.816 506.787 173.6 508.373 175.049C509.959 176.386 511.939 177.055 514.317 177.055C515.902 177.055 517.388 176.72 518.774 176.052C520.161 175.383 521.302 174.268 522.191 172.708L522.935 172.541C523.332 172.541 523.679 172.596 523.974 172.708C524.371 172.819 524.768 172.875 525.163 172.875C525.757 172.875 526.501 172.485 527.393 171.705C528.384 170.813 529.423 169.81 530.512 168.695C531.701 167.581 532.89 166.522 534.078 165.519C535.267 164.404 536.408 163.624 537.497 163.178C538.191 161.618 538.833 160.057 539.428 158.497C540.122 156.937 541.113 155.71 542.399 154.819V149.97C543.391 148.744 544.432 147.63 545.521 146.627C546.71 145.624 547.601 144.342 548.196 142.781C548.69 143.004 549.137 143.171 549.532 143.283C550.029 143.394 550.523 143.45 551.02 143.45C551.515 143.45 552.009 143.394 552.504 143.283C553.098 143.171 553.645 143.004 554.139 142.781C554.931 144.007 555.525 145.401 555.922 146.961C556.417 148.41 557.011 149.803 557.706 151.141C556.814 153.147 555.775 155.543 554.586 158.33C553.398 161.116 552.109 163.903 550.721 166.689C549.334 169.476 547.849 172.151 546.265 174.714C544.777 177.166 543.293 179.061 541.805 180.399C541.51 180.733 540.866 181.123 539.875 181.569C538.786 182.46 537.794 183.296 536.903 184.077C536.011 184.968 535.17 185.971 534.378 187.086C531.503 188.089 528.729 189.427 526.057 191.099C523.479 192.77 520.905 194.387 518.33 195.947C517.141 195.613 515.853 195.445 514.464 195.445C513.275 195.445 512.087 195.501 510.898 195.613C509.709 195.835 508.423 195.947 507.037 195.947C506.64 195.39 506.046 195 505.254 194.777C504.56 194.665 504.312 194.108 504.51 193.105C501.141 192.882 498.416 191.823 496.338 189.928C494.256 188.145 492.473 185.916 490.989 183.241C489.601 180.566 488.462 177.668 487.57 174.547C486.679 171.426 485.737 168.417 484.746 165.519V165.017C484.746 164.46 484.945 164.126 485.34 164.014C485.737 163.903 485.934 163.568 485.934 163.011C485.934 162.788 485.887 162.621 485.787 162.51C485.49 161.284 485.243 160.225 485.045 159.333C484.846 158.441 484.746 157.382 484.746 156.156C484.746 154.373 484.846 152.645 485.045 150.974C485.243 149.19 485.34 147.407 485.34 145.624C485.34 143.84 485.143 142.28 484.746 140.942C485.143 140.385 485.49 139.66 485.787 138.769C485.984 137.766 486.134 136.763 486.234 135.76C486.332 134.756 486.381 133.753 486.381 132.75C486.481 131.747 486.629 130.855 486.828 130.075C486.431 128.849 486.084 127.79 485.787 126.899C485.49 125.895 485.34 124.725 485.34 123.388V122.217C486.332 120.323 487.173 118.372 487.867 116.366C488.562 114.36 489.303 112.298 490.095 110.18V109.678C490.095 106.446 489.998 103.214 489.8 99.9814C489.601 96.7492 489.501 93.5167 489.501 90.2845V87.1079C489.501 85.9933 489.551 84.9345 489.65 83.9314C490.442 83.4855 491.037 82.8726 491.434 82.0923C491.831 81.312 492.425 80.6992 493.217 80.2533H498.121L499.011 78.5814C499.31 78.0242 499.507 77.4111 499.605 76.7423C500.696 76.4079 501.735 75.962 502.727 75.4048C503.815 74.7361 504.807 74.0673 505.698 73.3986C507.084 72.507 508.323 71.7267 509.414 71.0579C510.603 70.2776 511.742 69.6648 512.831 69.2189C514.02 68.6617 515.258 68.2158 516.547 67.8814C517.833 67.547 519.319 67.2683 521.002 67.0454C521.796 67.0454 522.291 66.8783 522.49 66.5439C522.785 66.2095 523.182 65.8195 523.679 65.3736C524.868 65.5964 526.057 65.8195 527.245 66.0423C528.434 66.1539 529.623 66.2095 530.812 66.2095C533.189 66.2095 535.417 65.7079 537.497 64.7048C540.469 64.7048 543.391 64.6492 546.265 64.5376C549.237 64.4261 552.209 64.3704 555.181 64.3704C557.755 64.3704 560.33 64.482 562.907 64.7048C565.482 64.9276 568.007 65.3179 570.484 65.8751C571.376 65.5408 572.367 65.3736 573.456 65.3736C574.645 65.3736 575.834 65.5408 577.022 65.8751C578.311 66.098 579.55 66.098 580.738 65.8751C580.836 67.1011 581.083 68.1601 581.48 69.0517C581.975 69.832 582.222 70.7792 582.222 71.8939ZM774.502 61.5283C774.502 67.8814 773.758 73.7329 772.272 79.0829C770.786 84.4329 768.853 89.5601 766.476 94.4642C764.198 99.3683 761.721 104.217 759.049 109.01C756.372 113.802 753.847 118.874 751.469 124.224C750.875 124.224 750.428 124.391 750.133 124.725C749.934 125.06 749.736 125.505 749.539 126.063C749.439 126.509 749.239 126.954 748.944 127.4C748.745 127.735 748.35 127.902 747.756 127.902C746.862 130.354 745.723 132.694 744.337 134.924C742.951 137.041 741.465 139.159 739.879 141.277C738.393 143.283 736.907 145.345 735.421 147.463C734.035 149.58 732.797 151.865 731.708 154.317H730.22C724.87 163.011 718.829 170.813 712.094 177.724C705.456 184.634 698.174 190.82 690.25 196.281C690.052 196.95 689.755 197.507 689.358 197.953C688.961 198.399 688.863 199.012 689.061 199.792C687.972 200.461 687.03 201.297 686.236 202.3C685.545 203.415 684.85 204.529 684.158 205.644C683.464 206.759 682.72 207.817 681.928 208.82C681.234 209.935 680.293 210.771 679.104 211.328C677.62 210.994 676.182 210.715 674.796 210.492C673.507 210.269 672.171 210.102 670.783 209.991C670.188 209.991 669.594 209.991 669 209.991C668.405 210.102 667.861 210.102 667.366 209.991C666.277 209.768 665.336 209.266 664.544 208.486C663.85 207.817 662.809 207.483 661.423 207.483C660.728 207.483 660.184 207.539 659.789 207.65C658.995 206.09 658.054 204.474 656.965 202.802C655.974 201.241 655.479 199.514 655.479 197.619C655.479 196.17 655.629 194.832 655.924 193.606C656.321 192.38 656.518 191.099 656.518 189.761C656.518 187.086 656.073 184.467 655.182 181.903C654.39 179.34 653.993 176.72 653.993 174.045C653.993 173.154 654.093 172.318 654.29 171.538C654.488 170.646 654.587 169.754 654.587 168.863C654.587 167.86 654.19 166.968 653.399 166.188C653.499 165.63 653.696 165.073 653.993 164.516C654.29 163.959 654.44 163.345 654.44 162.677C654.637 161.785 654.687 160.838 654.587 159.835C654.488 158.72 654.44 157.717 654.44 156.825C654.44 154.485 654.538 152.144 654.735 149.803C654.935 147.463 655.379 145.178 656.073 142.949C655.974 142.28 655.826 141.667 655.629 141.11L655.034 139.438C655.726 137.097 656.173 134.478 656.371 131.58C656.568 128.682 656.668 125.784 656.668 122.886V114.025C656.668 111.127 656.818 108.396 657.112 105.833C657.312 104.718 657.509 103.66 657.707 102.656C658.006 101.542 658.154 100.483 658.154 99.4798C658.154 98.5882 658.006 97.8079 657.707 97.1392C657.412 96.3589 657.015 95.6345 656.518 94.9658C657.212 94.7429 657.609 94.297 657.707 93.6283C657.807 92.848 657.856 92.1792 657.856 91.622C657.856 90.0617 657.609 88.3339 657.112 86.4392C657.509 84.5445 657.757 82.6495 657.856 80.7548C657.956 78.7486 658.006 76.798 658.006 74.9033C658.006 68.2158 657.609 61.6398 656.818 55.1751C656.123 48.7105 655.676 42.1901 655.479 35.6142H655.034C654.34 35.6142 653.796 35.7814 653.399 36.1158C653.002 36.4501 652.607 36.8401 652.21 37.2861C651.813 37.6204 651.368 37.9548 650.874 38.2892C650.377 38.512 649.783 38.5679 649.091 38.4564C647.902 40.0167 646.514 41.3542 644.93 42.4689C643.442 43.5836 641.858 44.5867 640.175 45.4783C638.49 46.3698 636.756 47.2058 634.973 47.9861C633.19 48.6548 631.507 49.3236 629.921 49.9923C628.535 49.4351 627.346 48.5433 626.355 47.3173C625.364 45.9798 624.422 44.6423 623.533 43.3048C623.433 42.8589 623.383 42.4132 623.383 41.9673V40.6298C623.383 37.5089 624.027 35.1683 625.316 33.6079C626.602 31.9361 627.988 29.9855 629.477 27.7564H630.218C630.713 27.7564 631.16 27.8679 631.555 28.0908C631.854 28.3136 632.249 28.4251 632.743 28.4251H633.19C636.062 25.7501 639.084 23.6324 642.253 22.072C645.525 20.4001 648.891 19.1184 652.357 18.2267C653.846 16.5548 655.329 15.273 656.818 14.3814C658.401 13.4897 660.234 13.0439 662.314 13.0439C662.809 13.0439 663.356 13.0996 663.95 13.2111C664.642 13.2111 665.236 13.2668 665.733 13.3783C669.794 11.2605 673.607 9.47722 677.173 8.02826C680.84 6.46785 685.048 5.68763 689.803 5.68763C690.397 5.68763 690.794 5.52044 690.991 5.18607C691.291 4.85169 691.538 4.51732 691.735 4.18294C691.933 3.7371 692.132 3.34701 692.33 3.01263C692.527 2.67826 692.874 2.51107 693.369 2.51107C693.369 2.73398 693.419 3.06835 693.519 3.51419C693.618 3.96004 693.866 4.18294 694.263 4.18294C694.657 4.18294 695.004 4.07148 695.302 3.84857C695.699 3.51419 696.143 3.34701 696.64 3.34701C697.135 3.34701 697.482 3.7371 697.679 4.51732C698.768 3.7371 699.809 3.01263 700.801 2.34388C701.79 1.67513 702.879 1.17357 704.067 0.839193C705.556 1.17357 707.039 1.45221 708.527 1.67513C710.111 1.89804 711.697 2.00951 713.282 2.00951C714.471 2.00951 715.66 1.95379 716.849 1.84232C718.037 1.6194 719.076 1.06211 719.968 0.170443C720.365 0.0589837 720.562 0.281902 720.562 0.839193C721.454 1.73085 722.395 2.34388 723.387 2.67826C724.376 2.90116 725.417 3.06835 726.506 3.17982C727.595 3.17982 728.686 3.23554 729.775 3.34701C730.864 3.45847 731.855 3.84857 732.747 4.51732C733.539 4.74023 734.183 5.13035 734.68 5.68763C735.174 6.13347 735.819 6.52357 736.61 6.85794C737.205 7.08085 737.996 7.24804 738.988 7.35951C740.077 7.47097 740.871 7.69388 741.365 8.02826C741.86 8.25116 742.107 8.64129 742.107 9.19857C742.207 9.64441 742.504 10.0345 743.001 10.3689C743.89 11.1491 745.079 11.6507 746.567 11.8736C748.051 11.985 749.339 12.4866 750.428 13.3783C750.825 15.8303 751.916 17.4465 753.699 18.2267C755.483 19.0069 757.216 19.7871 758.899 20.5673C759.493 21.2361 759.691 22.0163 759.493 22.9079C760.682 23.9111 761.721 25.0257 762.615 26.2517C763.604 27.4776 764.496 28.8151 765.287 30.2642C766.181 31.6017 767.023 32.9392 767.815 34.2767C768.606 35.6142 769.548 36.8401 770.637 37.9548C770.539 38.9579 770.637 39.7382 770.936 40.2954C771.331 40.8526 771.431 41.6886 771.231 42.8033C772.42 44.0292 773.511 45.6454 774.502 47.6517C773.908 48.6548 773.608 49.7695 773.608 50.9954C773.608 52.1101 773.758 53.2245 774.055 54.3392C774.353 55.4539 774.502 56.5683 774.502 57.6829V61.5283ZM760.682 57.8501C760.682 54.6179 760.138 51.497 759.049 48.4876C757.957 45.3667 757.016 42.3017 756.224 39.2923C754.936 39.2923 754.094 38.7908 753.699 37.7876C753.4 36.673 752.806 35.7257 751.916 34.9454C750.033 34.4995 748.845 32.8836 748.35 30.097C746.367 29.2054 744.337 28.2023 742.257 27.0876C740.176 25.973 738.443 24.4126 737.057 22.4064C733.491 21.1803 729.875 19.9543 726.209 18.7283C722.643 17.3908 718.977 16.722 715.213 16.722C714.519 16.722 713.877 16.7777 713.282 16.8892C712.786 16.8892 712.291 16.8892 711.794 16.8892C711.002 16.8892 710.161 17.0564 709.269 17.3908C708.378 17.7251 707.536 17.8923 706.744 17.8923C705.85 17.8923 704.961 17.5579 704.067 16.8892C702.087 18.1152 699.907 19.0626 697.529 19.7314C695.252 20.4001 692.924 21.0132 690.547 21.5704C688.169 22.0163 685.842 22.6293 683.564 23.4095C681.284 24.0783 679.254 25.1371 677.471 26.5861C676.876 26.3632 676.282 26.1961 675.688 26.0845C675.193 25.973 674.696 25.9173 674.202 25.9173C673.31 25.9173 672.616 26.1401 672.121 26.5861C671.824 26.8089 671.627 27.0876 671.527 27.422C671.527 27.7564 671.477 28.1464 671.377 28.5923C671.377 28.9267 671.28 29.2054 671.082 29.4283C670.883 29.6511 670.488 29.707 669.894 29.5954C669.894 30.1526 669.844 30.6542 669.744 31.1001C669.744 31.5461 669.744 32.0476 669.744 32.6048C669.744 35.5026 669.991 38.4007 670.488 41.2986C671.082 44.0851 671.377 46.9273 671.377 49.8251C671.377 50.8283 671.33 51.887 671.23 53.0017C671.13 54.0048 670.933 55.0079 670.635 56.0111C671.13 57.3486 671.377 58.7976 671.377 60.3579C671.477 61.9183 671.527 63.4789 671.527 65.0392C671.527 66.5995 671.577 68.1601 671.677 69.7204C671.774 71.1695 672.121 72.5626 672.716 73.9001C672.419 75.572 672.221 77.2439 672.121 78.9158C672.021 80.5876 671.972 82.2595 671.972 83.9314C671.972 87.8323 672.121 91.6776 672.419 95.4673C672.816 99.257 673.013 103.102 673.013 107.003C673.013 108.006 672.963 109.065 672.865 110.18C672.865 111.294 672.816 112.409 672.716 113.524C672.518 114.973 672.171 116.366 671.677 117.703C671.18 119.041 670.933 120.49 670.933 122.05C670.933 123.053 670.982 124.112 671.082 125.227C671.18 126.23 671.23 127.289 671.23 128.403C671.23 128.849 671.18 129.295 671.082 129.741C671.082 130.075 671.082 130.465 671.082 130.911C670.585 134.812 670.188 138.769 669.894 142.781C669.594 146.794 669.447 150.751 669.447 154.652C669.447 158.33 669.547 162.008 669.744 165.686C669.941 169.253 670.238 172.875 670.635 176.553C670.238 177.334 670.041 178.225 670.041 179.228C670.041 180.789 670.388 182.349 671.082 183.909C671.774 185.581 672.816 186.696 674.202 187.253C677.371 185.916 680.293 184.132 682.97 181.903C685.742 179.785 688.516 177.612 691.291 175.383C691.983 174.826 693.024 174.101 694.41 173.209C695.796 172.206 696.738 171.482 697.235 171.036C697.729 170.59 698.124 170.144 698.423 169.699C698.818 169.141 699.265 168.584 699.759 168.027L706.297 160.169C710.061 155.822 713.777 151.419 717.443 146.961C721.207 142.503 724.673 137.766 727.842 132.75C728.736 131.19 729.625 129.685 730.519 128.236C731.408 126.676 732.252 125.06 733.044 123.388C733.441 122.83 733.738 122.217 733.936 121.549C734.133 120.768 734.48 120.1 734.975 119.542C735.274 119.096 735.619 118.651 736.016 118.205C736.51 117.759 736.907 117.313 737.205 116.867C737.996 115.864 738.74 114.861 739.435 113.858C740.226 112.743 741.018 111.573 741.812 110.347C743.99 106.78 746.02 103.214 747.903 99.647C749.786 95.9689 751.866 92.3464 754.144 88.7798C754.341 86.5507 754.738 84.4886 755.333 82.5939C755.927 80.5876 756.522 78.6929 757.116 76.9095C757.71 75.0148 758.205 73.0642 758.602 71.0579C758.999 69.0517 759.096 66.8226 758.899 64.3704C759.394 63.5901 759.791 63.0329 760.088 62.6986C760.485 62.3642 760.682 61.6954 760.682 60.6923V57.8501ZM886.243 166.02C885.944 167.581 885.302 168.863 884.311 169.866C883.419 170.757 882.33 171.482 881.042 172.039C879.753 172.596 878.417 172.987 877.028 173.209C875.742 173.321 874.553 173.377 873.462 173.377C872.968 173.377 872.473 173.377 871.979 173.377C871.582 173.265 871.135 173.209 870.64 173.209C870.146 173.209 869.896 173.488 869.896 174.045C869.896 174.603 869.649 174.993 869.154 175.216C868.66 174.993 868.163 174.826 867.668 174.714C867.174 174.603 866.677 174.547 866.182 174.547C865.488 174.547 864.796 174.603 864.102 174.714C863.508 174.826 862.913 174.881 862.319 174.881C861.527 174.881 860.933 174.77 860.536 174.547C860.239 174.324 859.941 174.101 859.644 173.878C859.447 173.544 859.197 173.209 858.903 172.875C858.703 172.541 858.356 172.262 857.861 172.039C857.167 171.705 856.573 171.649 856.078 171.872C855.681 172.095 855.037 171.76 854.148 170.869C852.959 169.754 851.918 168.417 851.026 166.856C850.234 165.185 849.44 163.457 848.649 161.674C847.857 159.89 847.015 158.107 846.121 156.324C845.232 154.54 844.191 152.98 843.002 151.642H841.813C840.03 151.642 838.791 152.478 838.1 154.15C837.603 153.816 837.108 153.426 836.611 152.98C836.117 152.423 835.572 151.977 834.978 151.642C832.7 152.423 830.323 153.091 827.846 153.649C825.368 154.206 822.893 154.485 820.416 154.485H818.336C817.741 154.485 817.097 154.373 816.403 154.15C815.414 154.596 814.522 155.153 813.731 155.822C812.936 156.379 812.045 156.658 811.054 156.658C810.459 156.658 809.767 156.435 808.976 155.989C808.381 155.989 808.082 156.268 808.082 156.825C808.182 157.382 807.884 157.661 807.193 157.661H805.854C804.468 157.661 803.08 157.717 801.693 157.828C800.405 157.94 799.069 157.995 797.683 157.995C795.8 157.995 793.867 157.717 791.886 157.16C791.392 157.494 790.845 157.661 790.251 157.661C789.856 157.884 789.559 158.274 789.361 158.831C789.162 159.277 788.964 159.723 788.767 160.169C788.567 160.503 788.27 160.838 787.873 161.172C787.578 161.395 787.131 161.451 786.537 161.339C786.34 162.677 785.843 163.735 785.051 164.516C784.259 165.296 783.862 166.466 783.862 168.027C782.774 168.695 781.882 169.531 781.188 170.535C780.494 171.538 779.802 172.596 779.107 173.711C778.413 174.826 777.671 175.884 776.88 176.888C776.186 177.891 775.294 178.671 774.203 179.228C773.708 179.897 773.561 180.956 773.758 182.405C772.669 183.408 771.331 184.3 769.747 185.08C768.162 185.86 766.676 186.25 765.287 186.25C762.415 186.25 760.435 184.523 759.344 181.067C759.344 179.953 759.443 178.782 759.643 177.556C759.741 176.219 759.938 174.993 760.237 173.878C760.532 172.652 760.979 171.593 761.574 170.702C762.168 169.699 763.01 168.974 764.099 168.528C764.099 167.525 763.804 166.856 763.209 166.522C762.615 166.076 762.365 165.352 762.465 164.349C765.14 162.9 767.467 161.005 769.448 158.664C771.431 156.324 773.214 153.871 774.797 151.308C776.483 148.633 778.166 145.958 779.852 143.283C781.535 140.608 783.418 138.212 785.496 136.094V132.583C788.468 129.016 790.4 125.004 791.292 120.545C792.381 120.323 793.075 119.765 793.372 118.874C793.769 117.982 793.967 116.923 793.967 115.697C794.461 115.697 794.758 115.474 794.858 115.028C795.056 114.471 795.503 114.304 796.194 114.527C797.088 111.852 798.077 109.4 799.166 107.17C800.257 104.941 801.346 102.712 802.438 100.483C803.526 98.1423 804.468 95.7461 805.26 93.2939C806.151 90.8417 806.795 88.1111 807.193 85.1017C808.579 84.9901 809.32 84.2658 809.42 82.9283C809.618 81.4792 809.817 80.1976 810.015 79.0829C811.501 77.5226 812.589 75.6835 813.284 73.5658C814.075 71.448 814.77 69.2745 815.364 67.0454C815.958 64.7048 816.603 62.4198 817.297 60.1908C818.088 57.8501 819.177 55.7882 820.563 54.0048V53.5033C820.563 52.9461 820.366 52.6117 819.969 52.5001C819.574 52.2773 819.375 51.887 819.375 51.3298C819.475 51.2183 819.524 51.107 819.524 50.9954C820.713 50.4382 821.605 49.5464 822.199 48.3204C822.794 46.9829 823.685 46.0355 824.874 45.4783C826.954 47.373 828.787 48.5433 830.373 48.9892C831.956 49.3236 834.037 49.6023 836.611 49.8251C837.9 51.3855 838.594 53.2804 838.694 55.5095C838.891 57.6273 839.238 59.7448 839.733 61.8626C840.525 65.4292 841.366 68.9401 842.26 72.3954C843.249 75.7392 843.993 79.1945 844.488 82.7611C844.785 84.8789 845.33 86.8851 846.121 88.7798C846.915 90.6745 847.46 92.6251 847.757 94.6314C847.954 96.1917 847.954 97.9751 847.757 99.9814C847.56 101.876 847.757 103.548 848.351 104.997L849.393 107.672C849.887 108.898 850.282 110.18 850.581 111.517C850.976 112.855 851.323 114.192 851.62 115.53C852.412 118.874 853.106 122.496 853.701 126.397C854.395 130.187 855.434 133.642 856.82 136.763C857.317 137.877 858.059 138.657 859.05 139.103C860.139 139.549 861.328 139.884 862.616 140.106C863.905 140.218 865.141 140.274 866.33 140.274C867.618 140.162 868.707 140.106 869.601 140.106H871.085C871.679 140.106 872.273 140.218 872.868 140.441C873.265 141.332 873.462 142.113 873.462 142.781C873.462 144.119 873.068 145.178 872.273 145.958C871.482 146.738 871.085 147.63 871.085 148.633C871.085 149.19 871.284 149.803 871.679 150.472C871.284 150.36 870.69 150.305 869.896 150.305C867.618 150.305 865.391 150.751 863.211 151.642C864.002 153.537 865.044 155.153 866.33 156.491C867.718 157.717 869.154 158.887 870.64 160.002C871.632 159.11 872.67 158.664 873.762 158.664C874.95 158.664 876.039 158.999 877.028 159.667C878.12 160.225 879.258 160.503 880.447 160.503C881.339 160.503 881.983 160.336 882.378 160.002C883.172 161.005 883.816 162.064 884.311 163.178C884.805 164.181 885.449 165.129 886.243 166.02ZM839.733 139.27C839.536 137.376 839.189 136.038 838.694 135.258C838.297 134.366 837.95 133.307 837.653 132.081C837.256 130.521 836.958 128.849 836.761 127.066C836.661 125.282 836.464 123.555 836.167 121.883C835.473 118.093 834.681 114.304 833.789 110.514C832.998 106.725 831.956 103.046 830.668 99.4798C831.065 98.8111 831.262 98.198 831.262 97.6408V97.1392C830.373 96.0245 829.729 94.687 829.332 93.1267C828.935 91.4548 828.54 89.8386 828.143 88.2783C827.846 86.6064 827.401 85.1017 826.807 83.7642C826.31 82.3151 825.468 81.1448 824.279 80.2533C823.982 80.922 823.835 81.7023 823.835 82.5939C823.835 83.3742 823.882 84.0986 823.982 84.7673C824.18 85.4361 824.279 86.1605 824.279 86.9408C823.288 87.498 822.546 88.3898 822.052 89.6158C821.655 90.7304 820.961 91.622 819.969 92.2908C819.177 95.8573 818.039 99.257 816.553 102.489C815.067 105.61 813.481 108.731 811.798 111.852C810.212 114.973 808.676 118.149 807.193 121.381C805.704 124.502 804.515 127.79 803.626 131.245C802.338 132.249 801.446 133.53 800.949 135.091C800.555 136.651 800.355 138.212 800.355 139.772C801.249 140.329 802.238 140.664 803.327 140.775C804.516 140.775 805.657 140.775 806.746 140.775C807.834 140.775 808.876 140.887 809.865 141.11C810.856 141.332 811.748 141.89 812.542 142.781C813.828 142.335 815.214 142.057 816.702 141.945C818.286 141.723 819.574 141.221 820.563 140.441C822.546 141.221 824.676 141.611 826.954 141.611C828.143 141.611 829.282 141.5 830.373 141.277C831.562 141.054 832.7 140.775 833.789 140.441C834.681 140.664 835.375 141.054 835.87 141.611C836.364 142.057 837.108 142.224 838.1 142.113C838.594 141.667 838.891 141.221 838.989 140.775C839.089 140.218 839.336 139.716 839.733 139.27ZM982.826 68.3829C982.629 69.7204 982.331 70.8908 981.937 71.8939C981.637 72.7855 981.59 74.0117 981.787 75.572C980.795 75.6835 980.004 76.0736 979.409 76.7423C978.915 77.2995 978.468 77.9683 978.071 78.7486C977.776 79.5289 977.429 80.3648 977.032 81.2564C976.735 82.0367 976.338 82.7611 975.843 83.4298C976.635 87.4423 977.082 91.5105 977.182 95.6345C977.279 99.7586 977.526 103.827 977.923 107.839C978.418 112.966 979.162 118.038 980.154 123.053C981.242 127.957 981.787 132.973 981.787 138.1C981.787 139.66 981.737 141.11 981.637 142.447C981.637 143.785 981.637 145.178 981.637 146.627C981.637 147.518 981.637 148.466 981.637 149.469C981.737 150.36 981.787 151.252 981.787 152.144C981.787 155.376 981.39 158.609 980.598 161.841C979.904 165.073 979.359 168.305 978.965 171.538C977.776 172.764 976.735 174.101 975.843 175.55C975.051 176.999 974.21 178.337 973.316 179.563C972.427 180.789 971.385 181.848 970.197 182.739C969.008 183.742 967.522 184.411 965.739 184.745C965.442 185.86 964.847 186.696 963.956 187.253C963.164 187.81 962.47 188.591 961.876 189.594H961.578C959.101 189.594 956.973 189.204 955.19 188.424C953.407 187.643 951.721 186.752 950.136 185.749C948.652 184.745 947.116 183.687 945.53 182.572C943.945 181.457 942.114 180.566 940.031 179.897C937.259 177.334 934.732 174.547 932.454 171.538C930.177 168.417 927.6 165.63 924.728 163.178C924.033 160.949 923.094 159.11 921.905 157.661C920.814 156.212 919.725 154.54 918.634 152.645C918.14 151.865 917.745 151.141 917.445 150.472C917.248 149.803 916.951 149.023 916.556 148.131C916.257 147.24 915.762 146.627 915.068 146.292C914.474 145.958 913.929 145.568 913.435 145.122C912.643 141.667 911.502 138.49 910.018 135.592C908.53 132.694 906.797 129.908 904.816 127.233C904.222 128.459 903.727 129.796 903.33 131.245C903.033 132.583 902.736 133.976 902.439 135.425C902.142 136.763 901.745 138.156 901.25 139.605C900.853 140.942 900.309 142.168 899.614 143.283V143.785C899.614 144.342 899.814 144.676 900.209 144.788C900.606 144.899 900.803 145.234 900.803 145.791C900.803 145.902 900.756 146.014 900.656 146.125C900.656 146.237 900.656 146.348 900.656 146.46C900.161 146.905 899.764 147.463 899.467 148.131C899.27 148.8 898.773 149.19 897.981 149.302C898.081 149.859 898.131 150.416 898.131 150.974V152.478C898.131 155.71 897.784 158.943 897.089 162.175C896.495 165.407 896.198 168.695 896.198 172.039V174.213C896.198 174.993 896.248 175.717 896.348 176.386C896.545 177.055 896.842 177.724 897.237 178.392C897.634 179.061 897.831 179.674 897.831 180.231C897.831 181.012 897.536 181.736 896.942 182.405C897.634 182.962 898.426 183.575 899.32 184.244C900.209 184.913 901.003 185.637 901.697 186.417C902.489 187.309 903.133 188.201 903.628 189.092C904.122 190.095 904.369 191.154 904.369 192.269C904.369 194.164 903.825 195.501 902.736 196.281C901.647 197.062 900.309 197.675 898.725 198.12C897.237 198.566 895.653 198.956 893.97 199.291C892.384 199.737 891.046 200.461 889.957 201.464H889.51C888.321 201.464 887.432 201.074 886.838 200.294C886.243 199.514 885.35 199.124 884.161 199.124C882.28 195.668 880.992 191.767 880.3 187.42C879.606 183.185 879.258 179.117 879.258 175.216C879.258 170.423 879.655 165.63 880.447 160.838C881.141 156.045 882.033 151.308 883.122 146.627C884.113 141.945 885.202 137.32 886.391 132.75C887.679 128.069 888.868 123.388 889.957 118.706L890.104 118.205C890.104 117.648 889.957 117.257 889.66 117.035C889.463 116.812 889.363 116.477 889.363 116.031C889.363 115.809 889.413 115.697 889.51 115.697C889.81 114.582 890.104 113.524 890.404 112.52C890.799 111.517 891.096 110.403 891.293 109.177C891.888 106.056 892.285 102.879 892.482 99.647C892.782 96.3033 892.929 93.0151 892.929 89.7829C893.029 86.5507 893.126 83.3183 893.226 80.0861C893.423 76.7423 893.771 73.4542 894.265 70.222C895.059 69.3304 895.801 68.3829 896.495 67.3798C897.189 66.3767 898.081 65.4851 899.17 64.7048C901.15 64.8164 903.133 65.1507 905.113 65.7079C907.094 66.2651 908.977 67.157 910.76 68.3829C911.949 73.1757 912.74 77.9683 913.137 82.7611C913.632 87.5539 914.426 92.3464 915.515 97.1392V97.6408C915.515 98.198 915.762 98.4767 916.257 98.4767C916.851 98.3651 917.298 98.5323 917.595 98.9783C917.398 99.3126 917.248 99.7026 917.151 100.149C917.151 100.594 917.151 101.04 917.151 101.486V104.328C917.348 105.22 917.595 106.167 917.892 107.17C918.19 108.174 918.834 108.787 919.823 109.01C920.32 112.576 921.061 115.864 922.053 118.874C923.044 121.883 924.183 124.781 925.472 127.567C926.758 130.354 928.144 133.14 929.632 135.927C931.116 138.602 932.652 141.444 934.237 144.453C936.715 146.571 938.843 149.023 940.626 151.81C942.409 154.485 944.192 157.104 945.975 159.667C947.858 162.119 949.938 164.293 952.218 166.188C954.596 168.082 957.665 169.253 961.429 169.699C961.925 169.253 962.273 168.64 962.47 167.86L963.212 165.519C963.511 164.739 963.806 164.07 964.106 163.513C964.5 162.844 965.045 162.342 965.739 162.008C965.936 158.887 966.136 155.71 966.333 152.478C966.63 149.246 967.275 146.181 968.266 143.283C967.769 142.28 967.522 141.054 967.522 139.605C967.522 138.49 967.572 137.431 967.672 136.428C967.869 135.425 967.967 134.422 967.967 133.419C967.967 131.301 967.572 129.574 966.778 128.236C966.778 127.456 966.828 126.676 966.928 125.895C967.028 125.004 967.325 124.168 967.819 123.388C967.028 121.159 966.383 118.818 965.889 116.366C965.492 113.914 965.294 111.406 965.294 108.842C965.294 107.393 965.442 105.889 965.739 104.328C965.145 102.656 964.748 100.706 964.55 98.4767L963.956 91.622C963.758 89.2814 963.461 87.1079 963.064 85.1017C962.667 83.0954 961.925 81.4792 960.834 80.2533C961.429 79.2501 961.728 78.0798 961.728 76.7423C961.728 74.5132 961.429 72.3954 960.834 70.3892C960.24 68.3829 959.945 66.2651 959.945 64.0361C959.945 62.4757 960.24 60.9151 960.834 59.3548C963.014 59.4664 965.145 59.7448 967.225 60.1908C969.405 60.5251 971.533 60.6923 973.615 60.6923C974.21 61.5839 974.902 62.3085 975.693 62.8658C976.487 63.423 977.329 63.9804 978.221 64.5376C979.112 64.9835 979.954 65.4851 980.748 66.0423C981.637 66.5995 982.331 67.3798 982.826 68.3829ZM1109.13 148.131C1109.13 149.246 1108.83 150.193 1108.24 150.974C1107.74 151.642 1107.1 152.255 1106.31 152.813C1105.61 153.37 1104.87 153.871 1104.08 154.317C1103.38 154.763 1102.74 155.32 1102.15 155.989C1101.75 156.435 1101.45 156.992 1101.25 157.661C1101.15 158.218 1100.91 158.609 1100.51 158.831C1099.92 159.389 1099.27 159.723 1098.58 159.835C1097.89 159.946 1097.14 160.113 1096.35 160.336C1095.66 160.448 1094.96 160.67 1094.27 161.005C1093.58 161.228 1092.98 161.729 1092.49 162.51C1087.83 163.067 1083.23 163.791 1078.67 164.683C1074.21 165.575 1069.6 166.02 1064.85 166.02C1063.96 166.02 1062.97 166.132 1061.88 166.355C1060.89 166.466 1059.95 166.578 1059.05 166.689C1056.97 166.912 1054.89 167.079 1052.81 167.191C1050.83 167.302 1048.8 167.358 1046.72 167.358C1043.85 167.358 1040.98 167.246 1038.1 167.024C1035.23 166.689 1032.41 166.188 1029.63 165.519C1028.94 164.962 1028.15 164.516 1027.26 164.181C1026.36 163.847 1025.42 163.513 1024.43 163.178C1023.54 162.844 1022.7 162.454 1021.91 162.008C1021.11 161.562 1020.52 160.893 1020.12 160.002C1018.64 159.89 1017.3 159.556 1016.11 158.999C1015.02 158.441 1013.98 157.828 1012.99 157.16C1012.1 156.379 1011.16 155.599 1010.17 154.819C1009.18 154.039 1008.04 153.37 1006.75 152.813C1005.76 151.252 1004.72 149.748 1003.63 148.299C1002.64 146.738 1001.4 145.456 999.915 144.453C999.618 142.335 999.123 140.218 998.429 138.1C997.835 135.982 997.191 133.92 996.496 131.914C995.902 129.796 995.407 127.679 995.013 125.561C994.516 123.443 994.269 121.27 994.269 119.041C994.269 117.48 994.466 115.585 994.863 113.356C995.26 111.127 995.754 108.898 996.349 106.669C997.043 104.328 997.835 102.155 998.726 100.149C999.618 98.1423 1000.51 96.5261 1001.4 95.3001C1001.7 94.9658 1002.05 94.687 1002.44 94.4642C1002.84 94.2414 1003.18 93.907 1003.48 93.4611C1004.37 92.3464 1005.31 91.4548 1006.31 90.7861C1007.29 90.0058 1008.34 89.1142 1009.42 88.1111C1009.82 87.6651 1010.12 87.1636 1010.32 86.6064C1010.61 86.0492 1011.01 85.5476 1011.51 85.1017C1011.8 84.8789 1012.2 84.823 1012.69 84.9345C1013.29 85.046 1013.78 84.9345 1014.18 84.6001C1014.58 84.2658 1014.77 83.8757 1014.77 83.4298C1014.77 82.9839 1014.92 82.5939 1015.22 82.2595C1015.32 82.148 1015.62 82.148 1016.11 82.2595C1016.61 82.2595 1016.9 82.2595 1017 82.2595C1017.7 82.2595 1018.49 81.7579 1019.38 80.7548C1020.27 79.6401 1021.02 78.9158 1021.61 78.5814C1022.3 78.1355 1023 77.857 1023.69 77.7454C1024.38 77.5226 1025.13 77.1882 1025.92 76.7423C1027.01 76.0736 1028.05 75.572 1029.04 75.2376C1030.13 74.7917 1031.22 74.2901 1032.31 73.7329C1032.9 73.5101 1033.45 73.1198 1033.94 72.5626C1034.44 72.0054 1034.93 71.6151 1035.43 71.3923C1036.32 71.0579 1037.26 70.8351 1038.25 70.7236C1039.34 70.5007 1040.33 70.3335 1041.22 70.222C1042.22 69.9992 1043.16 69.7761 1044.05 69.5533C1045.04 69.2189 1045.93 68.6617 1046.72 67.8814H1047.91C1049.69 67.8814 1051.43 67.6026 1053.11 67.0454C1054.79 66.4882 1056.53 66.2095 1058.31 66.2095C1058.81 66.2095 1059.55 66.321 1060.54 66.5439C1061.33 65.9867 1062.22 65.7079 1063.22 65.7079C1064.9 65.7079 1066.58 66.2095 1068.27 67.2126C1069.95 68.1042 1071.69 68.5501 1073.47 68.5501H1074.36C1074.76 68.5501 1075.15 68.4945 1075.55 68.3829C1076.64 69.6089 1077.92 70.2776 1079.41 70.3892C1081 70.5007 1082.33 71.0023 1083.42 71.8939C1084.12 72.5626 1084.66 73.3429 1085.06 74.2345C1085.55 75.1261 1085.95 76.0736 1086.25 77.0767L1087.14 80.0861C1087.43 81.0892 1087.83 81.9808 1088.33 82.7611C1087.83 86.7736 1086.35 90.0058 1083.87 92.4579C1081.49 94.7986 1078.47 95.9689 1074.81 95.9689C1073.42 95.9689 1072.23 95.8017 1071.24 95.4673C1070.35 95.0214 1069.51 94.5757 1068.71 94.1298C1068.02 93.6839 1067.28 93.2382 1066.48 92.7923C1065.69 92.3464 1064.8 92.012 1063.81 91.7892C1064.9 89.5601 1065.59 87.1636 1065.89 84.6001C1064.8 84.0429 1063.71 83.6526 1062.62 83.4298C1061.53 83.207 1060.49 82.8167 1059.5 82.2595C1056.83 83.0398 1054.2 83.597 1051.63 83.9314C1049.15 84.1542 1046.82 85.3245 1044.64 87.4423C1044.15 87.3308 1043.6 87.2195 1043.01 87.1079C1042.51 86.9964 1042.02 86.9408 1041.52 86.9408C1040.93 86.9408 1039.74 87.4423 1037.95 88.4454C1036.17 89.337 1034.24 90.3961 1032.16 91.622C1030.18 92.848 1028.25 94.0742 1026.36 95.3001C1024.58 96.5261 1023.34 97.362 1022.65 97.8079C1021.86 98.3651 1021.16 99.0339 1020.57 99.8142C1019.98 100.594 1019.38 101.43 1018.79 102.322C1018.19 103.102 1017.6 103.882 1017 104.663C1016.41 105.331 1015.67 105.833 1014.77 106.167C1014.58 107.393 1014.23 108.452 1013.73 109.344C1013.24 110.235 1012.69 111.183 1012.1 112.186C1012 114.192 1011.8 116.199 1011.51 118.205C1011.31 120.211 1011.21 122.217 1011.21 124.224V126.397C1011.21 127.066 1011.31 127.679 1011.51 128.236C1012.5 129.685 1013.29 131.301 1013.88 133.085C1014.58 134.868 1015.72 136.094 1017.3 136.763C1017.4 137.209 1017.35 137.487 1017.15 137.599C1017.05 137.71 1016.95 137.989 1016.85 138.435C1017.45 139.66 1018.19 140.664 1019.08 141.444C1020.07 142.113 1021.07 142.837 1022.05 143.617C1023.05 144.286 1023.99 145.01 1024.88 145.791C1025.77 146.571 1026.46 147.574 1026.96 148.8C1028.44 148.8 1029.83 149.079 1031.12 149.636C1032.51 150.193 1033.79 150.806 1034.98 151.475C1036.27 152.144 1037.46 152.757 1038.55 153.314C1039.74 153.871 1040.93 154.15 1042.12 154.15C1043.2 154.15 1044.2 153.983 1045.09 153.649C1047.66 154.54 1050.24 155.209 1052.81 155.655C1055.49 155.989 1058.16 156.156 1060.84 156.156C1064.11 156.156 1067.38 155.934 1070.64 155.488C1073.91 155.042 1077.18 154.652 1080.45 154.317C1081.64 154.094 1082.78 153.983 1083.87 153.983C1084.96 153.983 1086.05 153.871 1087.14 153.649C1088.53 153.426 1089.81 152.701 1091 151.475C1092.29 150.249 1093.53 149.357 1094.72 148.8C1095.81 149.58 1097.09 149.97 1098.58 149.97C1100.26 149.97 1101.9 149.692 1103.48 149.135C1105.07 148.466 1106.7 148.131 1108.39 148.131H1109.13ZM1202 71.8939V72.5626C1201.31 72.7855 1200.96 73.3429 1200.96 74.2345C1199.87 74.7917 1198.73 75.2376 1197.54 75.572C1196.35 75.7948 1195.21 76.1851 1194.13 76.7423C1193.03 76.6308 1191.9 76.5751 1190.71 76.5751C1189.62 76.4636 1188.53 76.4079 1187.44 76.4079C1184.47 76.4079 1181.49 76.5195 1178.52 76.7423C1175.55 76.9651 1172.58 76.9651 1169.61 76.7423C1168.22 77.6339 1166.69 78.3585 1165 78.9158C1163.42 79.3617 1161.88 79.5845 1160.39 79.5845C1159.21 79.5845 1158.16 79.4173 1157.28 79.0829C1154.9 80.4204 1152.27 81.5351 1149.4 82.4267C1146.62 83.3183 1143.8 84.2101 1140.93 85.1017C1138.06 85.882 1135.28 86.8292 1132.61 87.9439C1130.03 88.947 1127.75 90.3961 1125.77 92.2908C1125.57 93.8511 1125.43 95.4117 1125.33 96.972C1125.23 98.4211 1125.18 99.8698 1125.18 101.319C1125.18 102.879 1125.23 104.328 1125.33 105.666C1125.52 107.003 1125.87 108.341 1126.37 109.678C1126.86 109.901 1127.41 110.068 1128 110.18C1128.7 110.291 1129.29 110.347 1129.78 110.347C1130.28 110.347 1130.78 110.291 1131.27 110.18C1131.76 109.957 1132.11 109.567 1132.31 109.01C1133.8 108.787 1135.28 108.731 1136.77 108.842C1138.26 108.842 1139.74 108.842 1141.23 108.842C1142.71 108.842 1144.15 108.787 1145.54 108.675C1147.02 108.564 1148.46 108.285 1149.84 107.839C1151.43 107.393 1152.96 107.115 1154.45 107.003C1156.04 106.892 1157.57 106.78 1159.06 106.669C1160.54 106.557 1162.08 106.39 1163.66 106.167C1165.25 105.833 1166.88 105.22 1168.57 104.328C1169.85 104.885 1171.14 105.164 1172.43 105.164C1173.82 105.164 1175.15 105.276 1176.44 105.499C1177.14 106.056 1177.68 106.669 1178.08 107.338C1178.57 108.006 1178.82 108.787 1178.82 109.678C1178.82 111.239 1178.33 112.799 1177.33 114.36C1176.34 115.92 1175.55 117.369 1174.96 118.706H1173.32C1170.95 118.706 1168.62 119.096 1166.34 119.877C1164.16 120.545 1161.93 121.381 1159.65 122.385C1157.47 123.276 1155.24 124.112 1152.96 124.892C1150.78 125.561 1148.51 125.895 1146.13 125.895C1145.73 125.895 1145.49 126.174 1145.39 126.731C1145.39 127.177 1145.29 127.512 1145.09 127.735C1144.59 127.623 1143.85 127.567 1142.86 127.567C1140.58 127.567 1138.4 127.846 1136.32 128.403C1134.24 128.96 1132.11 129.239 1129.93 129.239C1129.34 129.239 1128.75 129.239 1128.15 129.239C1127.56 129.128 1126.96 129.016 1126.37 128.905C1125.87 129.796 1125.23 130.41 1124.44 130.744C1123.64 130.967 1122.9 131.413 1122.21 132.081C1121.91 133.085 1121.71 134.31 1121.61 135.76C1121.61 137.209 1121.56 138.713 1121.46 140.274C1121.46 141.723 1121.36 143.116 1121.17 144.453C1120.97 145.791 1120.57 146.85 1119.98 147.63C1120.08 148.187 1120.47 148.41 1121.17 148.299C1121.86 148.076 1122.21 148.41 1122.21 149.302C1122.21 150.305 1122.11 151.364 1121.91 152.478C1121.71 153.593 1121.61 154.707 1121.61 155.822C1121.61 157.94 1121.81 160.28 1122.21 162.844C1122.7 165.296 1123.4 167.581 1124.29 169.699C1125.28 171.816 1126.57 173.6 1128.15 175.049C1129.73 176.386 1131.72 177.055 1134.09 177.055C1135.68 177.055 1137.16 176.72 1138.55 176.052C1139.94 175.383 1141.08 174.268 1141.97 172.708L1142.71 172.541C1143.11 172.541 1143.45 172.596 1143.75 172.708C1144.15 172.819 1144.54 172.875 1144.94 172.875C1145.54 172.875 1146.28 172.485 1147.17 171.705C1148.16 170.813 1149.2 169.81 1150.29 168.695C1151.48 167.581 1152.67 166.522 1153.86 165.519C1155.05 164.404 1156.18 163.624 1157.28 163.178C1157.97 161.618 1158.61 160.057 1159.21 158.497C1159.9 156.937 1160.89 155.71 1162.18 154.819V149.97C1163.17 148.744 1164.21 147.63 1165.3 146.627C1166.49 145.624 1167.38 144.342 1167.97 142.781C1168.47 143.004 1168.91 143.171 1169.31 143.283C1169.8 143.394 1170.3 143.45 1170.8 143.45C1171.29 143.45 1171.79 143.394 1172.28 143.283C1172.88 143.171 1173.42 143.004 1173.92 142.781C1174.71 144.007 1175.3 145.401 1175.7 146.961C1176.19 148.41 1176.79 149.803 1177.48 151.141C1176.59 153.147 1175.55 155.543 1174.36 158.33C1173.17 161.116 1171.88 163.903 1170.5 166.689C1169.11 169.476 1167.63 172.151 1166.04 174.714C1164.55 177.166 1163.07 179.061 1161.58 180.399C1161.29 180.733 1160.64 181.123 1159.65 181.569C1158.56 182.46 1157.57 183.296 1156.68 184.077C1155.79 184.968 1154.95 185.971 1154.15 187.086C1151.28 188.089 1148.51 189.427 1145.83 191.099C1143.26 192.77 1140.68 194.387 1138.11 195.947C1136.92 195.613 1135.63 195.445 1134.24 195.445C1133.05 195.445 1131.86 195.501 1130.68 195.613C1129.49 195.835 1128.2 195.947 1126.81 195.947C1126.42 195.39 1125.82 195 1125.03 194.777C1124.34 194.665 1124.09 194.108 1124.29 193.105C1120.92 192.882 1118.19 191.823 1116.11 189.928C1114.03 188.145 1112.25 185.916 1110.76 183.241C1109.38 180.566 1108.24 177.668 1107.35 174.547C1106.45 171.426 1105.52 168.417 1104.52 165.519V165.017C1104.52 164.46 1104.72 164.126 1105.12 164.014C1105.52 163.903 1105.71 163.568 1105.71 163.011C1105.71 162.788 1105.66 162.621 1105.57 162.51C1105.27 161.284 1105.02 160.225 1104.82 159.333C1104.62 158.441 1104.52 157.382 1104.52 156.156C1104.52 154.373 1104.62 152.645 1104.82 150.974C1105.02 149.19 1105.12 147.407 1105.12 145.624C1105.12 143.84 1104.92 142.28 1104.52 140.942C1104.92 140.385 1105.27 139.66 1105.57 138.769C1105.76 137.766 1105.91 136.763 1106.01 135.76C1106.11 134.756 1106.16 133.753 1106.16 132.75C1106.26 131.747 1106.41 130.855 1106.6 130.075C1106.21 128.849 1105.86 127.79 1105.57 126.899C1105.27 125.895 1105.12 124.725 1105.12 123.388V122.217C1106.11 120.323 1106.95 118.372 1107.64 116.366C1108.34 114.36 1109.08 112.298 1109.87 110.18V109.678C1109.87 106.446 1109.77 103.214 1109.58 99.9814C1109.38 96.7492 1109.28 93.5167 1109.28 90.2845V87.1079C1109.28 85.9933 1109.33 84.9345 1109.43 83.9314C1110.22 83.4855 1110.81 82.8726 1111.21 82.0923C1111.61 81.312 1112.2 80.6992 1112.99 80.2533H1117.9L1118.79 78.5814C1119.09 78.0242 1119.28 77.4111 1119.38 76.7423C1120.47 76.4079 1121.51 75.962 1122.5 75.4048C1123.59 74.7361 1124.58 74.0673 1125.47 73.3986C1126.86 72.507 1128.1 71.7267 1129.19 71.0579C1130.38 70.2776 1131.52 69.6648 1132.61 69.2189C1133.8 68.6617 1135.03 68.2158 1136.32 67.8814C1137.61 67.547 1139.1 67.2683 1140.78 67.0454C1141.57 67.0454 1142.07 66.8783 1142.27 66.5439C1142.56 66.2095 1142.96 65.8195 1143.45 65.3736C1144.64 65.5964 1145.83 65.8195 1147.02 66.0423C1148.21 66.1539 1149.4 66.2095 1150.59 66.2095C1152.96 66.2095 1155.19 65.7079 1157.28 64.7048C1160.25 64.7048 1163.17 64.6492 1166.04 64.5376C1169.01 64.4261 1171.98 64.3704 1174.96 64.3704C1177.53 64.3704 1180.11 64.482 1182.68 64.7048C1185.26 64.9276 1187.79 65.3179 1190.26 65.8751C1191.15 65.5408 1192.14 65.3736 1193.23 65.3736C1194.42 65.3736 1195.61 65.5408 1196.8 65.8751C1198.09 66.098 1199.33 66.098 1200.51 65.8751C1200.61 67.1011 1200.86 68.1601 1201.26 69.0517C1201.75 69.832 1202 70.7792 1202 71.8939Z" fill="#D27449" fill-opacity="0.1"/>
</svg>
