<svg width="42" height="42" viewBox="0 0 42 42" fill="none" xmlns="http://www.w3.org/2000/svg">
<path d="M21 0.166504C9.54167 0.166504 0.166668 9.5415 0.166668 20.9998C0.166668 32.4582 9.54167 41.8332 21 41.8332C32.4583 41.8332 41.8333 32.4582 41.8333 20.9998C41.8333 9.5415 32.4583 0.166504 21 0.166504ZM31.2083 12.8748L27.6667 29.9582C27.4583 31.2082 26.625 31.4165 25.7917 30.7915L20.375 26.6248C19.125 27.8748 17.875 28.9165 17.6667 29.3332C17.25 29.5415 17.0417 29.9582 16.625 29.9582C16 29.9582 16 29.5415 15.7917 29.1248L13.9167 22.8748L8.29167 20.9998C7.04167 20.5832 7.04167 19.7498 8.5 19.1248L29.75 10.9998C30.5833 10.7915 31.625 11.2082 31.2083 12.8748ZM26.2083 14.7498L14.3333 22.2498L16.2083 28.4998L16.625 24.3332L26.8333 15.1665C27.4583 14.5415 27.0417 14.5415 26.2083 14.7498Z" fill="white"/>
</svg>
