<svg width="50" height="60" viewBox="0 0 50 60" fill="none" xmlns="http://www.w3.org/2000/svg">
<path fill-rule="evenodd" clip-rule="evenodd" d="M19.0837 0.313021C18.8678 0.700308 19.106 2.28295 19.4865 2.98958C19.6309 3.25804 20.0432 3.66445 20.4026 3.89293C20.9984 4.27169 21.056 4.36918 21.056 4.99838V5.68842H17.2088H13.3618L13.2896 6.16087C13.2141 6.65529 13.556 7.08761 14.2293 7.34928C14.4102 7.41959 16.0017 7.51898 17.766 7.57034L20.9738 7.66356L21.0192 10.0609L21.0644 12.4581L20.1144 12.7223C17.6527 13.4068 15.2223 14.8183 12.9853 16.8632C7.81474 21.5898 6.23241 27.3393 8.39575 33.5414C9.81177 37.6014 12.5272 39.9945 17.0052 41.1288C18.2263 41.4381 18.5031 41.5681 18.6966 41.9229C18.9185 42.3296 18.9109 42.3471 18.5153 42.3471C17.9414 42.3471 17.5074 42.9891 17.7668 43.4548C17.9346 43.7558 17.866 43.8759 17.1488 44.5365C15.5926 45.9695 14.8794 47.7143 15.0039 49.7822C15.2065 53.1437 17.6051 54.8193 22.2263 54.8274C24.0293 54.8304 25.0262 54.679 26.362 54.1989C30.38 52.7549 30.7056 47.1176 26.9336 44.2967C26.5266 43.9922 26.4983 43.9129 26.6691 43.5529C26.9216 43.0207 26.499 42.3471 25.9125 42.3471H25.5126L25.8736 41.8251C26.1142 41.4769 26.6186 41.1274 27.3876 40.7762C29.0552 40.0144 30.7715 38.2914 32.799 35.3445C33.685 34.0567 34.8204 32.6089 35.3221 32.1268C37.707 29.8359 41.4395 29.3567 44.1225 30.9968C45.9972 32.1427 47.6315 34.5205 48.3941 37.2117C48.6891 38.2524 48.7516 38.8947 48.7481 40.846C48.7432 43.581 48.478 44.7878 47.3938 47.0102C44.514 52.913 38.3448 56.9758 30.2583 58.2951C27.4959 58.7459 24.0086 58.8717 20.9721 58.6304C18.8418 58.4611 18.4541 58.3881 18.123 58.0939C17.839 57.8417 17.4975 57.7438 16.807 57.7166C16.2939 57.6965 14.9119 57.5436 13.7358 57.3767C12.5596 57.21 9.60187 56.8175 7.16299 56.5048C1.29133 55.7517 0 55.7634 0 56.5697C0 57.2373 0.957226 57.4845 6.66225 58.29C14.3081 59.3694 14.628 59.4108 15.3599 59.4176C15.6198 59.4201 15.9899 59.5034 16.1824 59.6026C16.3748 59.702 17.1985 59.7941 18.0128 59.8072C18.827 59.8205 20.8257 59.8885 22.4543 59.9583C28.5278 60.219 33.8836 59.2564 38.3958 57.0932C44.4718 54.1805 48.6994 49.1983 49.7693 43.6902C50.1738 41.6078 50.0332 38.4874 49.4505 36.6132C48.2128 32.6321 45.8453 30.0134 42.6994 29.1462C41.3524 28.7747 38.774 28.8915 37.5095 29.3812C35.3289 30.2254 33.9587 31.5514 31.3739 35.3194C29.8248 37.5775 28.3536 39.0703 27.0535 39.7031L26.234 40.1021L25.7656 39.7434C25.4694 39.5165 25.3643 39.3449 25.4797 39.2765C25.7999 39.0864 25.6974 37.9487 25.333 37.6491C25.0336 37.4029 25.004 37.183 25.004 35.207C25.004 33.1973 25.0285 33.023 25.333 32.8664C25.7311 32.6618 25.7933 31.593 25.4276 31.2417C25.2674 31.0878 25.2225 30.8222 25.2856 30.401C25.3643 29.8762 25.5676 29.6243 26.6605 28.6971C31.1764 24.866 32.9632 22.6535 33.6649 20.024C34.405 17.2512 33.042 14.447 30.2751 13.0505C28.8035 12.3077 27.3536 12.015 25.1274 12.0116L23.359 12.0089L23.3615 9.99424C23.363 8.8861 23.4184 7.89837 23.4848 7.7993C23.5661 7.6781 24.6311 7.59989 26.7313 7.56101C29.5074 7.5095 29.9303 7.46621 30.5148 7.17389C31.0769 6.89263 31.1802 6.76053 31.2238 6.26658L31.2749 5.68842H27.4814H23.688V5.00565C23.688 4.41279 23.7844 4.22618 24.4202 3.58876C25.4062 2.60024 25.9101 1.05647 25.4918 0.305595C25.3328 0.0203835 25.1187 0 22.2898 0C19.4362 0 19.2478 0.0183293 19.0837 0.313021ZM26.9918 13.6558C30.2527 14.2146 32.2387 16.2403 32.0451 18.8105C31.9938 19.4923 31.7882 20.0978 31.2606 21.1205C30.6454 22.3131 30.2897 22.7499 28.7135 24.2497C27.7058 25.2085 26.3399 26.4357 25.6781 26.9769C24.1131 28.2566 23.9989 28.207 23.6324 26.0872C23.2962 24.1431 23.2901 22.7821 23.6058 20.2255C23.8722 18.0678 23.9098 15.6955 23.6971 14.4581C23.6031 13.9115 23.6189 13.6323 23.7481 13.5519C24.04 13.3703 25.6217 13.421 26.9918 13.6558ZM20.6091 15.9197C20.551 17.1575 20.611 18.4719 20.789 19.8633C21.1022 22.3116 21.1192 24.2316 20.8435 26.0093C20.6691 27.1331 20.5704 27.369 20.0373 27.9355C19.434 28.5766 19.1649 29.3284 19.2197 30.2197C19.2552 30.7949 19.2498 30.9087 19.143 31.8684C19.0636 32.5817 19.0962 32.7143 19.3959 32.8941C19.718 33.0872 19.74 33.2398 19.74 35.269C19.74 37.2759 19.7155 37.4502 19.411 37.6068C19.1725 37.7294 19.0822 37.9373 19.0825 38.3629C19.0827 38.6857 18.9162 39.2536 18.7124 39.6247C18.2996 40.3762 18.2513 40.3816 16.5323 39.866C12.5703 38.6776 10.2612 36.2278 9.11429 31.9959C8.61914 30.1687 8.51058 27.4379 8.86951 25.8349C9.95949 20.9674 14.5082 16.1324 19.6578 14.368C20.1101 14.213 20.5288 14.0809 20.5882 14.0746C20.6474 14.0682 20.6569 14.8984 20.6091 15.9197Z" fill="white"/>
</svg>
